<svg width="35" height="75" viewBox="0 0 35 75" fill="none" xmlns="http://www.w3.org/2000/svg">
<path d="M33.7424 20.5463C35.3037 12.0211 30.6114 3.22288 22.0182 0.892686C13.5199 -1.41174 4.97 3.93812 1.88026 11.8923C-2.65954 23.5804 3.4612 45.2838 19.5881 38.116C23.8517 36.2207 27.9339 32.4817 30.6578 28.1418C32.1748 25.7251 33.2703 23.1217 33.7424 20.5463Z" fill="#E42C2C"/>
<path d="M8.33388 43.3473C7.26927 42.9341 4.95145 42.2528 5.7378 40.6688C5.86971 40.4029 7.092 39.0817 7.0415 38.9209C6.39119 38.5963 5.8625 37.9635 6.63854 37.4142C3.47871 34.8459 1.66279 30.8966 0.75483 26.9989C-1.30431 18.1563 0.688873 8.00902 8.72448 2.79829C18.3472 -3.44201 30.5877 1.21219 33.7001 12.2221C35.988 20.3154 32.3675 28.1748 26.5292 33.7596C23.1663 36.9762 18.5317 39.7876 13.7713 39.8309C13.7281 39.9917 13.8476 40.0927 13.8146 40.2741C13.7054 40.877 13.019 40.911 12.5367 40.7822C12.4821 40.809 12.4501 41.4634 12.4439 41.5829C12.4048 42.3755 12.6964 43.3834 11.8451 43.8699C11.1144 44.2872 9.56442 43.7441 8.81414 43.4999M22.0017 0.887552C13.5034 -1.41687 4.95351 3.93298 1.86376 11.8872C-2.67604 23.5752 3.4447 45.2787 19.5716 38.1108C26.2097 35.1602 32.4067 27.742 33.7259 20.5411C35.2872 12.016 30.5949 3.21774 22.0017 0.887552ZM7.29503 39.1353C7.04048 40.003 5.26268 41.0244 6.24072 41.922C7.03017 42.6465 10.1921 43.7462 11.2556 43.6606C12.3192 43.5751 12.0585 42.4775 12.0729 41.718C12.076 41.5376 12.1873 40.9069 12.0884 40.8306C10.4033 40.5554 8.78735 39.9597 7.29503 39.1353Z" fill="black"/>
<path d="M7.29507 39.1353C8.78738 39.9597 10.4044 40.5554 12.0884 40.8306C12.1873 40.9069 12.076 41.5376 12.0729 41.7179C12.0585 42.4775 12.3636 43.572 11.2557 43.6606C10.1478 43.7493 7.0302 42.6465 6.24076 41.922C5.26271 41.0254 7.04051 40.0041 7.29507 39.1353Z" fill="#E42C2C"/>
<path d="M7.6269 25.5282C7.32699 25.6601 7.13427 24.9861 7.08893 24.7872C7.00029 24.3946 6.8993 22.927 7.30329 22.7301C7.60629 22.5828 7.75367 23.2104 7.81138 23.2166C10.9764 21.7305 14.7154 21.6851 17.7618 23.5433C19.4582 24.578 20.7815 26.2043 21.6214 27.9862C22.5603 27.4513 22.4181 28.1315 22.0347 28.7581C21.8317 29.09 20.9948 29.999 20.5991 30.0021C20.1601 30.0052 20.3672 29.5455 20.4826 29.2899C20.6403 28.9395 20.9454 28.6881 21.136 28.3634C20.4775 27.2514 19.6324 26.2455 18.6183 25.4386C15.9789 23.3392 12.5346 22.6394 9.28204 23.4722C8.9605 23.5546 8.34111 23.7164 8.0649 23.8638C7.84745 23.9792 7.95669 24.3286 7.94123 24.5667C7.92474 24.814 7.87321 25.419 7.6269 25.5272V25.5282Z" fill="black"/>
<path d="M15.039 10.6041C15.2946 10.6772 15.3338 11.1317 15.3399 11.3626C15.3739 12.6374 14.3227 15.8189 13.3849 16.6846C12.7408 17.2793 12.6253 16.562 12.6377 16.0106C12.6686 14.6657 13.3756 12.6354 14.0867 11.4935C14.2362 11.2533 14.7257 10.5134 15.039 10.6041Z" fill="black"/>
<path d="M23.6342 13.5639C23.7888 13.5928 23.8259 13.7402 23.862 13.8721C24.1691 14.9882 22.785 19.0498 21.8503 19.7311C21.7606 19.797 21.6112 19.8877 21.4947 19.8661C21.0484 19.6713 21.3865 18.0615 21.4741 17.6822C21.7111 16.6537 22.1821 15.3891 22.718 14.4822C22.8633 14.2369 23.3106 13.5031 23.6332 13.5639H23.6342Z" fill="black"/>
<path d="M8.8193 43.4298C4.9463 45.357 2.0266 48.8147 3.25714 53.3256C3.9394 55.8269 5.74192 57.6253 6.83127 59.9297C8.95637 64.4272 8.6039 69.6926 5.55435 73.7264C5.41934 73.9057 4.61032 75.0239 4.51345 74.3458C4.48562 74.1541 4.73708 74.0603 4.83293 73.9273C8.00203 69.5298 8.73582 64.8653 6.32215 59.9318C5.21838 57.6768 3.53746 55.9825 2.82738 53.4957C1.50408 48.86 4.465 45.155 8.44004 43.0989" fill="black"/>
</svg>
