<svg width="348" height="70" viewBox="0 0 348 70" fill="none" xmlns="http://www.w3.org/2000/svg">
<g clip-path="url(#clip0_70_197)">
<path d="M1.19144 0.57312H32.6095V53.7121C32.6095 62.3776 25.5717 69.4154 16.9062 69.4154C8.24073 69.4154 1.2029 62.3776 1.2029 53.7121V0.57312H1.19144Z" fill="white" stroke="black" stroke-width="1.14623" stroke-miterlimit="10"/>
<path d="M32.6095 0.57312H64.0275V53.7121C64.0275 62.3776 56.9897 69.4154 48.3242 69.4154C39.6588 69.4154 32.6209 62.3776 32.6209 53.7121V0.57312H32.6095Z" fill="#E42C2C" stroke="black" stroke-width="1.14623" stroke-miterlimit="10"/>
<path d="M64.0161 0.57312H95.4341V53.7121C95.4341 62.3776 88.3963 69.4154 79.7308 69.4154C71.0653 69.4154 64.0275 62.3776 64.0275 53.7121V0.57312H64.0161Z" fill="white" stroke="black" stroke-width="1.14623" stroke-miterlimit="10"/>
<path d="M95.4341 0.57312H126.852V53.7121C126.852 62.3776 119.814 69.4154 111.149 69.4154C102.483 69.4154 95.4456 62.3776 95.4456 53.7121V0.57312H95.4341Z" fill="#E42C2C" stroke="black" stroke-width="1.14623" stroke-miterlimit="10"/>
<path d="M126.841 0.57312H158.259V53.7121C158.259 62.3776 151.221 69.4154 142.555 69.4154C133.89 69.4154 126.852 62.3776 126.852 53.7121V0.57312H126.841Z" fill="white" stroke="black" stroke-width="1.14623" stroke-miterlimit="10"/>
<path d="M158.259 0.57312H189.677V53.7121C189.677 62.3776 182.639 69.4154 173.973 69.4154C165.308 69.4154 158.27 62.3776 158.27 53.7121V0.57312H158.259Z" fill="#E42C2C" stroke="black" stroke-width="1.14623" stroke-miterlimit="10"/>
<path d="M189.665 0.57312H221.083V53.7121C221.083 62.3776 214.046 69.4154 205.38 69.4154C196.715 69.4154 189.677 62.3776 189.677 53.7121V0.57312H189.665Z" fill="white" stroke="black" stroke-width="1.14623" stroke-miterlimit="10"/>
<path d="M221.083 0.57312H252.501V53.7121C252.501 62.3776 245.464 69.4154 236.798 69.4154C228.133 69.4154 221.095 62.3776 221.095 53.7121V0.57312H221.083Z" fill="#E42C2C" stroke="black" stroke-width="1.14623" stroke-miterlimit="10"/>
<path d="M252.49 0.57312H283.908V53.7121C283.908 62.3776 276.87 69.4154 268.205 69.4154C259.539 69.4154 252.501 62.3776 252.501 53.7121V0.57312H252.49Z" fill="white" stroke="black" stroke-width="1.14623" stroke-miterlimit="10"/>
<path d="M315.315 0.57312H346.733V53.7121C346.733 62.3776 339.695 69.4154 331.029 69.4154C322.364 69.4154 315.326 62.3776 315.326 53.7121V0.57312H315.315Z" fill="white" stroke="black" stroke-width="1.14623" stroke-miterlimit="10"/>
<path d="M283.908 0.57312H315.326V53.7121C315.326 62.3776 308.288 69.4154 299.623 69.4154C290.957 69.4154 283.919 62.3776 283.919 53.7121V0.57312H283.908Z" fill="#E42C2C" stroke="black" stroke-width="1.14623" stroke-miterlimit="10"/>
</g>
<defs>
<clipPath id="clip0_70_197">
<rect width="346.687" height="70" fill="white" transform="translate(0.618322)"/>
</clipPath>
</defs>
</svg>
