<svg width="36" height="74" viewBox="0 0 36 74" fill="none" xmlns="http://www.w3.org/2000/svg">
<path d="M30.3852 7.75021C25.2641 0.757576 15.6486 -1.8787 8.05101 2.76313C0.537917 7.35343 -1.45115 17.241 2.20543 24.952C7.57693 36.2814 27.551 46.7482 33.4244 30.106C34.9776 25.7054 35.0662 20.1721 33.7841 15.2107C33.0709 12.4477 31.9321 9.86295 30.3852 7.75124V7.75021Z" fill="#73B959"/>
<path d="M32.8195 45.7578C32.0589 44.2985 30.8799 42.9793 29.4916 41.8776C28.46 42.3671 26.372 43.5832 25.7619 41.9229C25.6599 41.6447 25.5393 39.8483 25.3878 39.7741C24.7055 40.0235 23.8821 39.972 24.0171 39.0321C19.9802 39.5639 15.863 38.1684 12.4073 36.1495C4.56755 31.5695 -1.43468 23.1484 0.300859 13.7298C2.37855 2.45085 14.1707 -3.24426 24.3087 2.06025C31.761 5.95902 34.9827 13.9895 35.0291 22.0694C35.0559 26.7226 33.9129 32.0219 30.6737 35.5105C30.7613 35.6527 30.9159 35.6352 31.0252 35.7836C31.3879 36.2773 30.9417 36.7998 30.5161 37.0616C30.4985 37.1193 30.952 37.5934 31.0345 37.6799C31.5838 38.2529 32.5165 38.7332 32.2846 39.6865C32.0857 40.5038 30.6263 41.2571 29.9327 41.6343C31.29 42.7453 32.4423 44.0728 33.2059 45.5321M8.0345 2.77136C0.521407 7.3627 -1.46765 17.2493 2.18892 24.9613C7.56042 36.2907 27.5345 46.7575 33.4079 30.1153C35.8257 23.2649 34.6941 13.6648 30.3687 7.75948C25.2476 0.765811 15.6321 -1.87047 8.0345 2.77136ZM25.7176 39.738C26.1731 40.5192 25.6939 42.5124 27.0172 42.4186C28.0859 42.3424 31.0571 40.8016 31.726 39.9699C32.3948 39.1382 31.4178 38.5735 30.8768 38.0406C30.7479 37.9139 30.3666 37.4006 30.243 37.4202C28.8856 38.4549 27.3418 39.2196 25.7176 39.738Z" fill="black"/>
<path d="M25.7176 39.738C27.3418 39.2207 28.8857 38.456 30.243 37.4202C30.3666 37.4006 30.748 37.9149 30.8768 38.0406C31.4189 38.5735 32.4237 39.1032 31.726 39.9699C31.0283 40.8367 28.0859 42.3424 27.0172 42.4186C25.6939 42.5124 26.1731 40.5192 25.7176 39.738Z" fill="#73B959"/>
<path d="M27.6077 16.7402C27.7664 16.2929 28.6682 16.7608 28.9238 16.9123C29.4257 17.2101 31.0716 18.5643 30.8768 19.1868C30.7304 19.6537 29.9225 19.1827 29.8586 19.2373C28.2714 24.0492 24.5942 28.0335 19.603 29.3908C16.8245 30.1462 13.7935 29.9205 11.08 29.0291C10.7089 30.5513 10.1328 29.7237 9.85559 28.6962C9.70925 28.152 9.58352 26.366 9.97515 25.9455C10.409 25.4807 10.6863 26.1568 10.8409 26.5319C11.0532 27.0472 11.014 27.6192 11.1655 28.1427C12.9927 28.557 14.8942 28.6683 16.7534 28.4035C21.5931 27.715 25.7609 24.785 28.122 20.5297C28.3559 20.1092 28.8012 19.295 28.9217 18.857C29.0166 18.5118 28.5404 18.2799 28.3054 18.0263C28.0705 17.7728 27.4758 17.106 27.6067 16.7381L27.6077 16.7402Z" fill="black"/>
<path d="M10.3101 14.5068C10.5389 14.3718 10.8965 14.6552 11.0676 14.8088C12.0168 15.6601 13.606 18.6096 13.5905 19.8866C13.5802 20.7636 12.9794 20.3545 12.5877 19.9659C11.6324 19.0188 10.6419 17.1111 10.3018 15.8095C10.2297 15.5354 10.0287 14.6717 10.3101 14.5058V14.5068Z" fill="black"/>
<path d="M18.3663 10.2958C18.4931 10.203 18.626 10.2783 18.7466 10.3422C19.7679 10.8853 21.7683 14.682 21.6209 15.8301C21.6065 15.9404 21.5704 16.1115 21.4746 16.1816C21.0263 16.3722 20.0895 15.0201 19.8741 14.6965C19.2897 13.8174 18.6951 12.6064 18.4044 11.5933C18.3261 11.3192 18.1004 10.4906 18.3663 10.2968V10.2958Z" fill="black"/>
<path d="M29.9328 41.6333C33.3956 44.4695 35.5238 48.7084 33.2678 52.9679C32.0579 55.2537 30.0616 56.5616 28.5136 58.5393C25.1291 62.8647 24.8797 67.5808 27.0677 72.539C27.1337 72.6884 27.3604 72.8327 27.2934 73.0151C27.0574 73.6582 26.4988 72.3957 26.403 72.1927C24.2562 67.6148 25.0034 62.3907 28.0148 58.4311C29.5576 56.4029 31.6941 55.0177 32.8803 52.7112C35.0188 48.5528 32.8803 44.5654 29.4906 41.8776" fill="black"/>
</svg>
