<svg width="35" height="72" viewBox="0 0 35 72" fill="none" xmlns="http://www.w3.org/2000/svg">
<path d="M33.6574 15.2457C32.4001 6.67007 25.1333 -0.156643 16.2474 0.394729C7.45948 0.939918 1.07799 8.74982 0.704908 17.275C0.155597 29.8019 12.9175 48.393 25.8918 36.4287C29.3216 33.2658 31.9878 28.4147 33.1751 23.4297C33.8357 20.6543 34.0387 17.8366 33.6584 15.2467L33.6574 15.2457Z" fill="#FFC21F"/>
<path d="M18.0376 49.9811C18.0479 48.3352 17.6222 46.6183 16.9101 44.9961C15.7692 44.9466 13.3555 45.0445 13.5926 43.2925C13.6328 42.9978 14.3666 41.3539 14.2666 41.2179C13.5472 41.119 12.8433 40.6892 13.4019 39.9204C9.58456 38.5023 6.59787 35.3445 4.4872 31.9445C-0.300977 24.2305 -1.66859 13.9801 4.26871 6.466C11.3799 -2.53219 24.4665 -2.05193 30.9479 7.37602C35.7124 14.3068 34.8055 22.9123 31.0685 30.075C28.9166 34.2005 25.428 38.3508 20.9346 39.9193C20.9449 40.0863 21.0902 40.142 21.117 40.3254C21.2067 40.9314 20.5677 41.1839 20.0699 41.2169C20.0266 41.2602 20.2059 41.8899 20.2389 42.0053C20.4564 42.7679 21.0562 43.6295 20.4059 44.3633C19.8483 44.993 18.2055 44.9765 17.4161 44.9858C18.0963 46.6028 18.4941 48.3146 18.4869 49.9615M16.2289 0.394717C7.44091 0.939905 1.05942 8.74981 0.686339 17.275C0.137028 29.8019 12.899 48.393 25.8732 36.4287C31.2138 31.5034 34.7024 22.4888 33.6399 15.2457C32.3815 6.67005 25.1147 -0.156655 16.2289 0.394717ZM14.5747 41.3395C14.6118 42.2434 13.2566 43.781 14.4706 44.3169C15.4508 44.7498 18.7981 44.7766 19.7782 44.354C20.7584 43.9315 20.1596 42.9761 19.9287 42.2516C19.8741 42.0795 19.7772 41.4467 19.6587 41.4065C17.9747 41.6868 16.2526 41.6404 14.5747 41.3385V41.3395Z" fill="black"/>
<path d="M14.5747 41.3395C16.2526 41.6415 17.9747 41.6869 19.6587 41.4076C19.7772 41.4478 19.8741 42.0805 19.9287 42.2527C20.1585 42.9772 20.7996 43.915 19.7783 44.3551C18.7569 44.7951 15.4518 44.7508 14.4707 44.318C13.2566 43.7821 14.6118 42.2444 14.5747 41.3406V41.3395Z" fill="#FFC21F"/>
<path d="M12.7516 11.8313C13.0175 11.819 13.1999 12.2364 13.2803 12.4528C13.7214 13.6493 13.7472 16.9998 13.1371 18.1211C12.7176 18.8909 12.3775 18.2489 12.2136 17.7222C11.8117 16.4381 11.8292 14.2883 12.1363 12.9794C12.2013 12.7042 12.427 11.8468 12.7526 11.8313H12.7516Z" fill="black"/>
<path d="M21.8426 11.8767C21.9982 11.854 22.0806 11.9828 22.1569 12.0952C22.8062 13.0536 22.799 17.344 22.1322 18.2901C22.0683 18.3808 21.9559 18.5148 21.8384 18.5323C21.353 18.4911 21.1572 16.8576 21.118 16.4711C21.0129 15.4209 21.0531 14.0719 21.2695 13.0402C21.3283 12.762 21.5169 11.9231 21.8415 11.8767H21.8426Z" fill="black"/>
<path d="M26.7441 23.4009C26.7204 23.3452 26.6946 23.2824 26.6452 23.2937C26.5431 23.3164 26.4844 23.7286 26.4658 23.8667C26.4236 24.1852 26.403 24.5665 26.4009 24.9334C23.3792 24.551 20.3492 24.4624 17.311 24.4511C14.346 24.4634 11.3871 24.549 8.43751 24.9066C8.43751 24.2686 8.38701 23.6348 8.28704 23.4019C8.26334 23.3463 8.23757 23.2834 8.1881 23.2947C8.08607 23.3174 8.02733 23.7296 8.00878 23.8677C7.94076 24.3748 7.92839 25.0395 7.96137 25.5559C7.97374 25.7465 8.03454 26.5504 8.18707 26.57C8.22417 26.5617 8.25921 26.4958 8.2788 26.4504C8.37773 26.2299 8.43029 25.6373 8.43647 25.0261C11.3861 25.3838 14.3449 25.4693 17.31 25.4817C20.3482 25.4703 23.3782 25.3817 26.3999 24.9993C26.3999 25.1931 26.4061 25.3827 26.4164 25.5548C26.4287 25.7455 26.4895 26.5494 26.6421 26.5689C26.6792 26.5607 26.7142 26.4947 26.7338 26.4494C26.942 25.9846 26.944 23.8729 26.741 23.4019L26.7441 23.4009Z" fill="black"/>
<path d="M17.4223 44.9858C19.1578 49.1123 19.0568 53.8541 15.0705 56.5646C12.932 58.0188 10.5554 58.2424 8.26333 59.2669C3.24842 61.5084 0.824444 65.5597 0.440029 70.9663C0.428692 71.1291 0.561639 71.362 0.416324 71.4919C-0.0927937 71.9495 0.00305298 70.5726 0.0143896 70.3489C0.257612 65.299 3.36076 61.0292 7.87376 58.9381C10.1854 57.8663 12.7227 57.6406 14.8489 56.1575C18.6838 53.4821 18.657 48.9567 16.9183 44.9961" fill="black"/>
</svg>
